<?xml version="1.0" encoding="UTF-8" standalone="no"?>
<!-- Created with Inkscape (http://www.inkscape.org/) -->

<svg
   xmlns:dc="http://purl.org/dc/elements/1.1/"
   xmlns:cc="http://creativecommons.org/ns#"
   xmlns:rdf="http://www.w3.org/1999/02/22-rdf-syntax-ns#"
   xmlns:svg="http://www.w3.org/2000/svg"
   xmlns="http://www.w3.org/2000/svg"
   xmlns:xlink="http://www.w3.org/1999/xlink"
   xmlns:sodipodi="http://sodipodi.sourceforge.net/DTD/sodipodi-0.dtd"
   xmlns:inkscape="http://www.inkscape.org/namespaces/inkscape"
   sodipodi:docname="toggle-on.svg"
   inkscape:version="0.48.1 r9760"
   version="1.1"
   id="svg3801"
   height="441.19385"
   width="1255">
  <sodipodi:namedview
     id="base"
     pagecolor="#ffffff"
     bordercolor="#666666"
     borderopacity="1.0"
     inkscape:pageopacity="0.0"
     inkscape:pageshadow="2"
     inkscape:zoom="0.62190083"
     inkscape:cx="747.32502"
     inkscape:cy="145.01248"
     inkscape:document-units="px"
     inkscape:current-layer="layer1"
     showgrid="false"
     showguides="true"
     inkscape:guide-bbox="true"
     inkscape:snap-global="true"
     guidetolerance="20"
     fit-margin-top="0"
     fit-margin-left="0"
     fit-margin-right="0"
     fit-margin-bottom="0"
     inkscape:window-width="1680"
     inkscape:window-height="967"
     inkscape:window-x="1680"
     inkscape:window-y="28"
     inkscape:window-maximized="1">
    <sodipodi:guide
       id="guide4510"
       position="1367.7485,388.89555"
       orientation="0,1" />
    <sodipodi:guide
       id="guide4517"
       position="1177.7178,52.587796"
       orientation="0,1" />
  </sodipodi:namedview>
  <defs
     id="defs3803">
    <linearGradient
       id="linearGradient5187">
      <stop
         style="stop-color:#ff6600;stop-opacity:1;"
         offset="0"
         id="stop5189" />
      <stop
         style="stop-color:#000000;stop-opacity:1;"
         offset="1"
         id="stop5191" />
    </linearGradient>
    <linearGradient
       id="linearGradient3808">
      <stop
         id="stop3810"
         offset="0"
         style="stop-color:#888888;stop-opacity:1;" />
      <stop
         id="stop3812"
         offset="1"
         style="stop-color:#000000;stop-opacity:1;" />
    </linearGradient>
    <linearGradient
       id="linearGradient6058">
      <stop
         id="stop6060"
         offset="0"
         style="stop-color:#4d4d4d;stop-opacity:1;" />
      <stop
         id="stop6062"
         offset="1"
         style="stop-color:#1a1a1a;stop-opacity:1;" />
    </linearGradient>
    <marker
       style="overflow:visible"
       id="Arrow1Lstart"
       refX="0"
       refY="0"
       orient="auto"
       inkscape:stockid="Arrow1Lstart">
      <path
         transform="matrix(0.8,0,0,0.8,10,0)"
         style="fill-rule:evenodd;stroke:#000000;stroke-width:1pt;marker-start:none"
         d="M 0,0 5,-5 -12.5,0 5,5 0,0 z"
         id="path4707"
         inkscape:connector-curvature="0" />
    </marker>
    <linearGradient
       id="linearGradient4405">
      <stop
         id="stop4407"
         offset="0"
         style="stop-color:#666666;stop-opacity:1;" />
      <stop
         id="stop4409"
         offset="1"
         style="stop-color:#000000;stop-opacity:1;" />
    </linearGradient>
    <inkscape:perspective
       id="perspective3809"
       inkscape:persp3d-origin="372.04724 : 350.78739 : 1"
       inkscape:vp_z="518.94754 : 594.23415 : 1"
       inkscape:vp_y="5.679328e-14 : 927.53528 : 0"
       inkscape:vp_x="-273.30612 : 415.4966 : 1"
       sodipodi:type="inkscape:persp3d" />
    <linearGradient
       gradientUnits="userSpaceOnUse"
       y2="541.22504"
       x2="57.578705"
       y1="324.04218"
       x1="258.59903"
       id="linearGradient4411"
       xlink:href="#linearGradient4405"
       inkscape:collect="always" />
    <linearGradient
       y2="1030.8867"
       x2="823.25574"
       y1="694.57898"
       x1="823.25574"
       gradientUnits="userSpaceOnUse"
       id="linearGradient3026"
       xlink:href="#linearGradient6058"
       inkscape:collect="always" />
    <linearGradient
       y2="1030.8867"
       x2="1014.7148"
       y1="694.57898"
       x1="1014.7148"
       gradientUnits="userSpaceOnUse"
       id="linearGradient3029"
       xlink:href="#linearGradient6058"
       inkscape:collect="always" />
    <linearGradient
       y2="1030.8867"
       x2="256.94156"
       y1="694.57898"
       x1="256.94156"
       gradientTransform="translate(4.9943695,0)"
       gradientUnits="userSpaceOnUse"
       id="linearGradient3032"
       xlink:href="#linearGradient6058"
       inkscape:collect="always" />
    <radialGradient
       gradientUnits="userSpaceOnUse"
       gradientTransform="matrix(0.65539346,0,0,0.47412084,38.938671,368.42186)"
       r="627.5"
       fy="1397.249"
       fx="132.12349"
       cy="1397.249"
       cx="132.12349"
       id="radialGradient3820"
       xlink:href="#linearGradient5187"
       inkscape:collect="always" />
    <radialGradient
       inkscape:collect="always"
       xlink:href="#linearGradient5187"
       id="radialGradient5193"
       cx="168.14897"
       cy="863.13086"
       fx="168.14897"
       fy="863.13086"
       r="165.61282"
       gradientTransform="matrix(1.1459931,-3.4423305e-8,2.1256703e-8,0.70766112,-23.18651,250.05201)"
       gradientUnits="userSpaceOnUse" />
    <filter
       id="filter5273"
       inkscape:label="Glow"
       inkscape:menu="Shadows and Glows"
       inkscape:menu-tooltip="Glow of object's own color at the edges"
       color-interpolation-filters="sRGB">
      <feGaussianBlur
         id="feGaussianBlur5275"
         stdDeviation="5"
         result="result91" />
      <feComposite
         id="feComposite5277"
         in2="result91"
         in="SourceGraphic"
         operator="over" />
    </filter>
  </defs>
  <metadata
     id="metadata3806">
    <rdf:RDF>
      <cc:Work
         rdf:about="">
        <dc:format>image/svg+xml</dc:format>
        <dc:type
           rdf:resource="http://purl.org/dc/dcmitype/StillImage" />
        <dc:title />
      </cc:Work>
    </rdf:RDF>
  </metadata>
  <g
     transform="translate(163.00301,-642.28066)"
     id="layer1"
     inkscape:groupmode="layer"
     inkscape:label="Layer 1">
    <rect
       rx="75"
       y="649.86218"
       x="-160.50301"
       height="425"
       width="1250"
       id="rect3012"
       style="fill:#000000;fill-opacity:1;stroke:url(#radialGradient3820);stroke-width:5;stroke-linejoin:miter;stroke-miterlimit:4;stroke-opacity:1;stroke-dasharray:none" />
    <path
       inkscape:connector-curvature="0"
       id="rect4485"
       d="m -85.503111,674.86219 c -27.699869,0 -49.999869,22.29999 -49.999869,49.99999 l 0,275 c 0,27.70002 22.3,50.00002 49.999869,50.00002 l 550.000141,0 0,-375.00001 -550.000141,0 z"
       style="fill:#4d4d4d;fill-opacity:1;stroke:url(#linearGradient3032);stroke-width:5;stroke-linejoin:miter;stroke-miterlimit:4;stroke-opacity:1;stroke-dasharray:none;marker-start:none;marker-mid:none;marker-end:none" />
    <path
       sodipodi:nodetypes="ssssccs"
       inkscape:connector-curvature="0"
       id="rect4508"
       d="m 968.572,650.86 c -27.60976,-25.1038 86.0016,14.40313 86.1664,51.71897 l 1.4142,320.30773 c 0.1724,39.0446 -115.92392,78.5738 -87.5806,51.7193 l 46.1428,-43.719 1.9404,-336.308 z"
       style="fill:url(#linearGradient3029);fill-opacity:1;stroke:none" />
    <path
       sodipodi:nodetypes="ssssccs"
       inkscape:connector-curvature="0"
       id="rect4485-3"
       d="m 964.503,644.862 c 27.65029,-1.65903 50,22.29999 50,49.99999 l 0,336.02611 c 0,27.7 -22.35321,51.7153 -50,49.9998 l -500.00047,-31.0257 0,-375.00001 z"
       style="fill:#333333;fill-opacity:1;stroke:url(#linearGradient3026);stroke-width:5;stroke-linejoin:miter;stroke-miterlimit:4;stroke-opacity:1;stroke-dasharray:none" />
    <text
       sodipodi:linespacing="125%"
       id="text3008"
       y="933.89539"
       x="13.813403"
       style="font-size:40.00009537px;font-style:normal;font-variant:normal;font-weight:bold;font-stretch:normal;line-height:125%;letter-spacing:0px;word-spacing:0px;fill:#ff6600;fill-opacity:1;stroke:none;filter:url(#filter5273);font-family:Droid Sans;-inkscape-font-specification:Sans Bold"
       xml:space="preserve"><tspan
         style="font-size:200.00047302px;fill:#ff6600;stroke:none"
         y="933.89539"
         x="13.813403"
         id="tspan3010"
         sodipodi:role="line">ON</tspan></text>
    <g
       transform="matrix(1.8763935,0,0,1.8763935,-84.207168,420.74775)"
       id="g4628">
      <path
         inkscape:connector-curvature="0"
         id="path3851"
         style="font-size:200px;font-style:normal;font-variant:normal;font-weight:bold;font-stretch:normal;line-height:125%;letter-spacing:0px;word-spacing:0px;fill:#1a1a1a;fill-opacity:1;stroke:none;font-family:Droid Sans;-inkscape-font-specification:Sans Bold"
         d="m 410.16778,236.83706 c -7e-5,6.79562 -0.61572,12.98579 -1.84498,18.56151 -1.1961,5.56417 -3.03127,10.3041 -5.49932,14.21577 -2.45746,3.89473 -5.55191,6.8599 -9.27285,8.89801 -3.66685,2.02564 -7.97364,2.9539 -12.90542,2.79573 -4.88846,-0.15677 -9.10195,-1.34084 -12.6554,-3.54253 -3.50226,-2.18676 -6.38968,-5.21081 -8.6718,-9.07044 -2.24462,-3.84303 -3.92203,-8.42799 -5.03742,-13.75853 -1.08532,-5.35765 -1.62716,-11.2781 -1.62715,-17.76938 -10e-6,-6.49119 0.54183,-12.38193 1.62715,-17.68016 1.11539,-5.34782 2.8068,-9.94019 5.0796,-13.78087 2.28229,-3.85662 5.16993,-6.88688 8.67247,-9.0892 3.55373,-2.25646 7.78203,-3.50621 12.70024,-3.73982 4.93255,-0.23412 9.24004,0.62782 12.90747,2.59701 3.69141,1.94253 6.75592,4.84132 9.18311,8.69918 2.46805,3.83356 4.30322,8.52499 5.49932,14.07051 1.22926,5.51654 1.84491,11.71725 1.84498,18.59321 m -44.06001,0.34067 c -1e-5,4.4457 0.28473,8.44678 0.85468,12.00603 0.5705,3.52429 1.44169,6.53214 2.61499,9.02479 1.20448,2.45957 2.71382,4.36561 4.53052,5.7174 1.82263,1.35629 4.00033,2.05927 6.53725,2.10575 2.60721,0.0478 4.84332,-0.58001 6.7038,-1.88687 1.89629,-1.31072 3.44179,-3.20412 4.63359,-5.6808 1.22414,-2.52124 2.12157,-5.58548 2.69074,-9.19133 0.59964,-3.64912 0.89973,-7.75769 0.89978,-12.3228 -5e-5,-4.56502 -0.30014,-8.64911 -0.89978,-12.24939 -0.56917,-3.63664 -1.4666,-6.70682 -2.69074,-9.20922 -1.1918,-2.49769 -2.72246,-4.38732 -4.58922,-5.66968 -1.86062,-1.27794 -4.08223,-1.87157 -6.66048,-1.78439 -2.53732,0.0859 -4.72985,0.82327 -6.58162,2.20876 -1.84563,1.38102 -3.36936,3.33033 -4.57384,5.84727 -1.1733,2.51087 -2.04449,5.55154 -2.61499,9.12326 -0.56995,3.52945 -0.85469,7.5156 -0.85468,11.96122" />
      <path
         inkscape:connector-curvature="0"
         id="path3853"
         style="font-size:200px;font-style:normal;font-variant:normal;font-weight:bold;font-stretch:normal;line-height:125%;letter-spacing:0px;word-spacing:0px;fill:#1a1a1a;fill-opacity:1;stroke:none;font-family:Droid Sans;-inkscape-font-specification:Sans Bold"
         d="m 438.91726,281.94022 c 0,0 -14.62461,-0.45356 -14.62461,-0.45356 0,0 0,-89.27338 0,-89.27338 0,0 41.09078,-1.90112 41.09078,-1.90112 0,0 0,16.06157 0,16.06157 0,0 -26.46617,0.86915 -26.46617,0.86915 0,0 0,23.312 0,23.312 0,0 24.59031,-0.31752 24.59031,-0.31752 0,0 0,15.97325 0,15.97325 0,0 -24.59031,-0.0113 -24.59031,-0.0113 0,0 0,35.74095 0,35.74095" />
      <path
         inkscape:connector-curvature="0"
         id="path3855"
         style="font-size:200px;font-style:normal;font-variant:normal;font-weight:bold;font-stretch:normal;line-height:125%;letter-spacing:0px;word-spacing:0px;fill:#1a1a1a;fill-opacity:1;stroke:none;font-family:Droid Sans;-inkscape-font-specification:Sans Bold"
         d="m 496.16574,283.71572 c 0,0 -16.08118,-0.49874 -16.08118,-0.49874 0,0 0,-93.58499 0,-93.58499 0,0 45.23342,-2.09279 45.23342,-2.09279 0,0 0,16.86627 0,16.86627 0,0 -29.15224,0.95736 -29.15224,0.95736 0,0 0,24.45284 0,24.45284 0,0 27.08387,-0.34971 27.08387,-0.34971 0,0 0,16.7722 0,16.7722 0,0 -27.08387,-0.0125 -27.08387,-0.0125 0,0 0,37.49005 0,37.49005" />
    </g>
  </g>
</svg>
